<?xml version="1.0" encoding="UTF-8"?>
<svg id="Ebene_2" data-name="Ebene 2" xmlns="http://www.w3.org/2000/svg" viewBox="0 0 119.88 147.42">
  <defs>
    <style>
      .cls-1 {
        fill: #74171e;
      }
    </style>
  </defs>
  <g id="Ebene_1-2" data-name="Ebene 1">
    <polygon points="48.86 17.04 48.86 17.04 43.12 4.74 43.12 4.72 43.11 4.72 43.11 4.71 43.09 4.72 24.75 4.72 24.75 13.27 24.75 13.27 24.75 13.29 24.75 13.31 24.76 13.31 81.65 135.29 81.52 135.29 81.52 135.34 81.67 135.34 81.7 135.41 81.71 135.43 81.91 135.34 104.04 135.34 48.86 17.04"/>
    <path class="cls-1" d="M54.55,14.06h0s38.41,82.33,38.41,82.33c16.03-8.67,26.93-25.62,26.93-45.12C119.88,22.96,96.93,0,68.61,0c-6.69,0-13.07,1.29-18.93,3.62l4.87,10.45Z"/>
    <path d="M61.63,107.84h-13.94s-6.9,0-6.9,0l10.37-22.23-11.18-23.98L0,147.33c.2.09,22.19-.17,22.33.09,0-.01.04-.08.04-.09h.15v-.05h-.13l8.94-19.17h16.35s23.4,0,23.4,0l-9.45-20.27Z"/>
  </g>
</svg>