<?xml version="1.0" encoding="UTF-8"?>
<svg id="Ebene_1" xmlns="http://www.w3.org/2000/svg" viewBox="0 0 336.44 413.72">
  <defs>
    <style>
      .cls-1 {
        fill: #e30613;
      }
    </style>
  </defs>
  <polygon points="137.11 47.82 137.11 47.82 121.01 13.3 121.01 13.25 120.99 13.25 120.98 13.22 120.93 13.25 69.47 13.25 69.47 37.24 69.45 37.25 69.47 37.3 69.47 37.35 69.5 37.35 229.13 379.69 228.77 379.69 228.77 379.82 229.19 379.82 229.29 380.02 229.31 380.08 229.87 379.82 291.98 379.82 137.11 47.82"/>
  <path class="cls-1" d="M153.09,39.47h0s107.78,231.06,107.78,231.06c44.99-24.33,75.56-71.9,75.56-126.63C336.44,64.42,272.02,0,192.55,0c-18.77,0-36.69,3.61-53.13,10.15l13.67,29.32Z"/>
  <path d="M172.96,302.64h-39.13s-19.37,0-19.37,0l29.09-62.39-31.38-67.29L0,413.46c.56.25,62.27-.49,62.67.26.02-.04.1-.22.12-.26h.42v-.13h-.36l25.08-53.79h45.9s65.66,0,65.66,0l-26.53-56.88Z"/>
</svg>